<svg width="411.52" height="84.5" xmlns="http://www.w3.org/2000/svg">
 <title>The CentOS Logo Vertical Version</title>
 <defs>
  <clipPath id="clipPath4429">
   <g id="g4431" transform="matrix(0.9947658,0,0,1,-299.098886677637,-3600.0598754882812) ">
    <path fill="#efa724" fill-rule="evenodd" stroke-width="30" id="path4433" d="m322.54143,2800.9375l-4.43505,5.7298l-4.43495,-5.7298l0,-43.1429l-18.93972,0l23.37467,-25.5367l23.13125,25.5367l-18.6962,0l0,43.1429z"/>
   </g>
  </clipPath>
 </defs>
 <g>
  <title>background</title>
  <rect fill="none" id="canvas_background" height="86.5" width="413.52" y="-1" x="-1"/>
 </g>
 <g>
  <title>Layer 1</title>
  <g id="layer1">
   <g id="g5189" transform="matrix(1.0008826,0,0,1.0094534,-0.05651152,-6.184848) ">
    <path fill="#bdbac2" id="text5083-9" d="m65.73002,88.32134l-34.4247,0c-3.49076,0 -6.94438,-0.50099 -10.3608,-1.50315c-6.61016,-2.08105 -11.84629,-6.86004 -15.70838,-14.33684c-3.49077,-6.78298 -5.23614,-14.68369 -5.23614,-23.70205c0,-8.70991 1.55969,-16.41791 4.67911,-23.12391c3.41645,-7.39958 8.28123,-12.44829 14.59428,-15.14615c4.90187,-2.08108 9.91517,-3.12164 15.03994,-3.12173l31.19388,0l0,15.49301l-32.41936,0c-5.27329,0.00008 -9.09826,2.96764 -11.47492,8.90273c-1.8568,4.62484 -2.78517,10.67556 -2.78517,18.15227c0,6.32057 1.18832,11.67761 3.56503,16.07113c2.74799,5.16435 6.61012,7.74654 11.58628,7.7465l31.75095,-0.11569l0,14.68381m57.33273,0.34681l-27.18327,0c-6.61015,0 -12.36616,-2.92902 -17.26804,-8.78705c-4.82761,-5.93524 -7.24144,-12.75678 -7.24144,-20.46477c0,-8.40167 2.63662,-15.64716 7.90989,-21.73649c5.34748,-6.16635 11.28916,-9.24951 17.82504,-9.24955l25.84645,0l0,12.37127l-18.93919,0c-2.3767,0.00006 -4.41913,0.23118 -6.12737,0.69373c-1.63403,0.38543 -3.15655,1.19478 -4.5677,2.42799c-2.59952,2.31246 -3.89924,5.43419 -3.89922,9.36519l33.42205,0l0,12.48693l-33.31062,0c-0.00003,1.84994 0.18564,3.43007 0.55698,4.7404c0.44565,1.23329 1.29975,2.5051 2.56237,3.81547c1.26261,1.23327 2.74802,2.08118 4.45625,2.54358c1.78251,0.38546 3.93638,0.57827 6.46167,0.57827l19.49615,0l0,11.21503m63.52974,-0.34681l-15.48555,0l0,-39.42641c-0.00005,-1.00202 -0.22282,-1.88842 -0.6684,-2.65924c-0.44569,-0.84783 -1.07699,-1.65717 -1.89397,-2.42803c-1.48544,-1.31029 -3.19366,-1.96547 -5.12467,-1.9655l-15.15134,0l0,46.47918l-15.48555,0l0,-59.89105l29.6342,0c5.27323,0.00004 9.0982,0.30834 11.47489,0.92492c3.71352,0.92504 6.68439,2.96762 8.91258,6.12785c2.52515,3.69987 3.78776,7.74657 3.78781,12.14006l0,40.69822m44.47573,-47.40415l-15.03994,0l0,27.1706c-0.00001,2.46658 0.81694,4.50918 2.45094,6.12786c1.85675,1.61869 4.30769,2.428 7.35287,2.428l4.56767,0l0,11.67769l-14.37148,0c-4.30775,0 -7.98418,-1.61877 -11.02928,-4.856c-1.78252,-1.92702 -2.9337,-4.04683 -3.45362,-6.35924c-0.51991,-2.31234 -0.77984,-5.04868 -0.7798,-8.20894l0,-27.97997l-9.80382,0l0,-12.4869l9.80382,0l0,-21.04276l15.2627,0l0,21.04276l15.03994,0l0,12.4869m90.9132,6.82154c-0.00011,15.72431 -4.19646,26.97795 -12.58902,33.76101c-6.83302,5.47262 -16.78535,8.209 -29.85703,8.209c-14.48291,0 -25.17796,-3.16021 -32.08517,-9.48082c-7.57565,-6.93722 -11.36346,-18.07523 -11.36346,-33.41413c0,-12.56396 3.37931,-22.35306 10.13802,-29.36738c7.3528,-7.63082 18.34492,-11.44628 32.97639,-11.44634c16.11683,0.00006 27.48027,3.66138 34.0905,10.98385c5.79309,6.47475 8.68966,16.72636 8.68977,30.75481m-19.83048,-0.46248c-0.00006,-7.93914 -1.81971,-14.25969 -5.45891,-18.96159c-4.08498,-5.24138 -10.13808,-7.86208 -18.15934,-7.86217c-7.87276,0.00009 -13.81444,2.81349 -17.82505,8.44023c-3.34226,4.70194 -5.01333,10.82977 -5.01331,18.38353c-0.00002,8.71006 1.33688,15.14624 4.01065,19.3085c3.7135,5.78098 10.58361,8.67147 20.61025,8.67144c8.46685,0.00003 14.40854,-2.81336 17.82508,-8.4402c2.6737,-4.3935 4.01057,-10.90676 4.01063,-19.53974m109.00635,15.95551c-0.00009,7.09136 -2.26535,13.06504 -6.79577,17.92115c-4.53068,4.85601 -10.28665,7.28403 -17.26809,7.28403l-55.14637,-0.11569l0,-14.56819l45.45399,0c3.04506,0.00003 5.60741,-0.73224 7.68706,-2.19676c2.37663,-1.69573 3.56496,-4.00813 3.56501,-6.93716c-0.00005,-6.86009 -4.67912,-10.29013 -14.03725,-10.29015l-22.94984,0c-6.61014,0.00002 -12.40328,-2.11967 -17.37943,-6.3591c-4.97616,-4.23934 -7.46426,-9.63491 -7.46426,-16.18674c0,-7.24544 2.41381,-13.10348 7.24144,-17.57416c4.90188,-4.54763 11.32634,-6.82148 19.27335,-6.82156l52.69547,0l0,13.87432l-46.45665,0c-2.07961,0.00007 -4.19638,0.92504 -6.3502,2.77491c-2.07961,1.77286 -3.11942,3.89256 -3.1194,6.35907c-0.00002,2.77491 1.00263,5.12585 3.008,7.0528c2.07957,1.84995 4.56768,2.77491 7.46425,2.77487l25.28934,0c7.87269,0.00004 14.03716,2.11972 18.49358,6.35908c4.53042,4.16234 6.79568,9.71206 6.79577,16.64923"/>
   </g>
  </g>
 </g>
</svg>