<svg width="109" height="37" xmlns="http://www.w3.org/2000/svg" stroke="null" style="vector-effect: non-scaling-stroke;">
 <metadata stroke="null"/>

 <g stroke="null">
  <title stroke="null">background</title>
  <rect stroke="null" fill="none" id="canvas_background" height="39" width="111" y="-1" x="-1"/>
 </g>
 <g stroke="null">
  <title stroke="null">Layer 1</title>
  <g stroke="null" id="Layer_1">
   <g stroke="null" id="svg_1">
    <path stroke="null" id="svg_6" d="m56.893002,-105.821353l-0.561,0.117l0.523,-0.048l0.038,-0.069" fill="#bdbac2"/>
    <path stroke="null" id="svg_11" d="m55.598002,-106.981353c1.009,-0.369 2.482,-0.203 3.556,-0.446c-1.398,0.117 -2.789,0.187 -4.162,0.362l0.606,0.084" fill="#bdbac2"/>
    <path stroke="null" id="svg_14" d="m13.437002,18.078647c-0.045,0.047 -0.045,7.506 -0.138,9.453c-0.092,1.574 -0.232,4.957 -3.568,4.957c-3.429,0 -4.263,-3.939 -4.541,-5.652c-0.324,-1.9 -0.324,-3.477 -0.324,-4.17c0,-2.225 0.139,-8.436 5.375,-8.436c1.576,0 2.456,0.465 3.151,0.834l0.045,3.014zm-13.437,5.469c0,13.066 6.951,13.066 7.97,13.066c2.873,0 4.727,-1.576 5.514,-4.309l0.093,4.123c0.881,-0.047 1.761,-0.139 3.197,-0.139c0.51,0 0.926,0 1.298,0.047c0.371,0 0.741,0.045 1.158,0.092c-0.741,-1.482 -1.297,-4.818 -1.297,-12.049c0,-7.043 0,-18.951 0.602,-22.566c-1.667,0.789 -3.105,1.299 -6.256,1.576c1.251,1.344 1.251,2.039 1.251,8.154c-0.879,-0.277 -1.992,-0.602 -3.892,-0.602c-8.294,0.001 -9.638,7.23 -9.638,12.607" fill="#bdbac2"/>
    <path stroke="null" id="svg_15" d="m25.130002,21.181647c0.047,-3.846 0.835,-7.275 4.124,-7.275c3.615,0 3.891,3.984 3.799,7.275l-7.923,0zm12.51,0.465c0,-5.422 -1.065,-10.752 -7.923,-10.752c-9.452,0 -9.452,10.475 -9.452,12.697c0,9.406 4.216,13.113 11.306,13.113c3.149,0 4.68,-0.461 5.514,-0.695c-0.046,-1.668 0.185,-2.734 0.465,-4.17c-0.975,0.604 -2.226,1.391 -5.006,1.391c-7.229,0 -7.322,-6.582 -7.322,-8.852l12.328,0l0.09,-2.732" fill="#bdbac2"/>
    <path stroke="null" id="svg_16" d="m52.715002,23.638647c0,4.309 -0.787,10.102 -6.162,10.102c-0.742,0 -1.668,-0.141 -2.27,-0.279c-0.093,-1.668 -0.093,-4.541 -0.093,-7.877c0,-3.986 0.416,-6.068 0.742,-7.09c0.972,-3.289 3.15,-3.334 3.566,-3.334c3.522,0 4.217,4.865 4.217,8.478zm-13.298,5.051c0,3.43 0,5.375 -0.556,6.857c1.9,0.742 4.262,1.158 7.09,1.158c1.807,0 7.043,0 9.869,-5.791c1.344,-2.688 1.807,-6.303 1.807,-9.037c0,-1.668 -0.186,-5.328 -1.529,-7.646c-1.296,-2.176 -3.382,-3.289 -5.605,-3.289c-4.449,0 -5.746,3.707 -6.44,5.607c0,-2.363 0.045,-10.611 0.415,-14.828c-3.011,1.391 -4.866,1.621 -6.857,1.807c1.807,0.74 1.807,3.801 1.807,13.764l0,11.398" fill="#bdbac2"/>
    <path stroke="null" id="svg_17" d="m66.535002,36.427647c-0.928,-0.139 -1.578,-0.232 -2.922,-0.232c-1.48,0 -2.502,0.094 -3.566,0.232c0.463,-0.881 0.648,-1.299 0.787,-4.309c0.186,-4.125 0.232,-15.154 -0.092,-17.471c-0.232,-1.762 -0.648,-2.039 -1.297,-2.502c3.799,-0.371 4.865,-0.648 6.625,-1.482c-0.369,2.037 -0.418,3.059 -0.418,6.162c-0.091,15.989 -0.138,17.702 0.883,19.602" fill="#bdbac2"/>
    <path stroke="null" id="svg_18" d="m81.373002,23.312647c-0.092,2.92 -0.139,4.959 -0.928,6.58c-0.973,2.086 -2.594,2.688 -3.799,2.688c-2.783,0 -3.383,-2.316 -3.383,-4.586c0,-4.355 3.893,-4.682 5.652,-4.682l2.458,0zm-12.744,5.701c0,2.92 0.881,5.838 3.477,7.09c1.158,0.51 2.316,0.51 2.688,0.51c4.264,0 5.699,-3.152 6.58,-5.098c-0.047,2.039 0,3.289 0.139,4.912c0.834,-0.047 1.668,-0.139 3.059,-0.139c0.787,0 1.529,0.092 2.316,0.139c-0.51,-0.787 -0.787,-1.252 -0.928,-3.059c-0.092,-1.76 -0.092,-3.521 -0.092,-5.977l0.047,-9.453c0,-3.523 -0.928,-6.998 -7.879,-6.998c-4.586,0 -7.273,1.391 -8.617,2.086c0.557,1.02 1.02,1.898 1.436,3.893c1.809,-1.576 4.172,-2.41 6.58,-2.41c3.848,0 3.848,2.549 3.848,6.162c-0.881,-0.045 -1.623,-0.137 -2.875,-0.137c-5.887,0.001 -9.779,2.268 -9.779,8.479" fill="#bdbac2"/>
    <path stroke="null" id="svg_19" d="m108.063002,31.840647c0.047,1.576 0.047,3.244 0.695,4.588c-1.021,-0.092 -1.623,-0.232 -3.521,-0.232c-1.113,0 -1.715,0.094 -2.596,0.232c0.184,-0.602 0.279,-0.834 0.371,-1.623c0.139,-1.064 0.232,-4.633 0.232,-5.885l0,-5.004c0,-2.178 0,-5.33 -0.141,-6.441c-0.092,-0.787 -0.322,-2.918 -3.012,-2.918c-2.641,0 -3.521,1.945 -3.846,3.521c-0.369,1.621 -0.369,3.383 -0.369,10.24c0.045,5.932 0.045,6.486 0.508,8.109c-0.787,-0.092 -1.76,-0.184 -3.15,-0.184c-1.113,0 -1.854,0.045 -2.779,0.184c0.324,-0.742 0.51,-1.113 0.602,-3.707c0.094,-2.549 0.279,-15.061 -0.141,-18.025c-0.23,-1.809 -0.695,-2.225 -1.203,-2.688c3.754,-0.186 4.957,-0.789 6.117,-1.389l0,4.91c0.555,-1.438 1.713,-4.635 6.348,-4.635c5.793,0 5.838,4.217 5.885,6.996l0,13.951" fill="#bdbac2"/>
    <path stroke="null" id="svg_20" d="m66.926002,4.105647l-3.838,3.836l-3.836,-3.836l3.836,-3.836l3.838,3.836" fill="#bdbac2"/>
   </g>
  </g>
 </g>
</svg>