<?xml version="1.0" standalone="no"?>
<!DOCTYPE svg PUBLIC "-//W3C//DTD SVG 20010904//EN"
 "http://www.w3.org/TR/2001/REC-SVG-20010904/DTD/svg10.dtd">
<svg version="1.0" xmlns="http://www.w3.org/2000/svg"
 width="200.000000pt" height="200.000000pt" viewBox="0 0 200.000000 200.000000"
 preserveAspectRatio="xMidYMid meet">

<g transform="translate(0.000000,200.000000) scale(0.100000,-0.100000)"
fill="#000000" stroke="none">
<path d="M255 601 c-50 -23 -75 -65 -75 -126 0 -90 67 -151 153 -143 23 3 50
8 60 12 12 6 17 4 17 -9 0 -54 -65 -80 -127 -51 -35 16 -36 16 -59 -5 -28 -27
-24 -36 30 -60 57 -26 125 -25 167 4 60 40 69 72 69 245 l0 152 -40 0 c-28 0
-40 -4 -40 -14 0 -13 -4 -13 -27 0 -37 19 -80 17 -128 -5z m118 -62 c30 -16
37 -28 37 -66 0 -43 -30 -73 -74 -73 -49 0 -80 29 -80 75 0 61 60 94 117 64z"/>
<path d="M612 600 c-34 -15 -47 -29 -64 -66 -46 -105 22 -204 140 -204 85 0
143 52 150 132 3 44 0 59 -20 88 -45 67 -125 87 -206 50z m128 -70 c12 -12 20
-33 20 -55 0 -45 -29 -75 -72 -75 -41 0 -78 34 -78 72 0 64 86 102 130 58z"/>
<path d="M988 606 c-16 -8 -28 -11 -28 -5 0 5 -16 9 -35 9 l-35 0 0 -195 0
-195 35 0 35 0 0 66 c0 59 2 65 18 58 9 -4 38 -9 64 -12 149 -13 205 189 76
268 -39 23 -92 26 -130 6z m100 -76 c49 -46 16 -130 -50 -130 -39 0 -51 7 -67
37 -17 34 -13 62 14 88 30 31 73 32 103 5z"/>
<path d="M1284 606 c-29 -13 -74 -59 -74 -77 0 -4 16 -11 35 -15 28 -5 38 -2
52 14 24 28 63 36 87 19 26 -19 13 -35 -32 -42 -69 -11 -119 -34 -131 -61 -17
-38 -14 -53 18 -85 34 -34 92 -39 141 -14 17 9 30 11 30 5 0 -5 16 -10 35 -10
l35 0 0 95 c0 68 -5 105 -16 126 -27 53 -113 74 -180 45z m114 -168 c-4 -28
-51 -52 -84 -44 -41 11 -26 39 26 53 62 16 62 16 58 -9z"/>
<path d="M1552 480 l62 -131 -32 -64 -32 -65 43 0 44 0 89 186 c49 102 91 190
92 195 2 5 -15 9 -38 9 l-41 0 -41 -87 -41 -88 -41 88 -41 87 -42 0 -42 0 61
-130z"/>
</g>
</svg>
